<?xml version="1.0" encoding="UTF-8"?>
<svg id="Layer_2" data-name="Layer 2" xmlns="http://www.w3.org/2000/svg" xmlns:xlink="http://www.w3.org/1999/xlink" viewBox="0 0 342.3 294.77">
  <defs>
    <style>
      .cls-1 {
        fill: #e8e5e2;
      }

      .cls-1, .cls-2, .cls-3, .cls-4, .cls-5, .cls-6, .cls-7, .cls-8, .cls-9, .cls-10, .cls-11, .cls-12, .cls-13 {
        stroke-width: 0px;
      }

      .cls-2 {
        fill: #b22632;
      }

      .cls-14 {
        clip-path: url(#clippath-2);
      }

      .cls-3 {
        fill: #fdf9f7;
      }

      .cls-4 {
        fill: none;
      }

      .cls-15 {
        clip-path: url(#clippath-1);
      }

      .cls-5 {
        fill: #294a91;
      }

      .cls-6 {
        fill: #e7979f;
      }

      .cls-7 {
        fill: #34322d;
      }

      .cls-16 {
        clip-path: url(#clippath);
      }

      .cls-8 {
        fill: #eacdb8;
      }

      .cls-17 {
        clip-path: url(#clippath-3);
      }

      .cls-9 {
        fill: #d8bb30;
      }

      .cls-10 {
        fill: #fdf9f6;
      }

      .cls-11 {
        fill: #63a19a;
      }

      .cls-12 {
        fill: #df431c;
      }

      .cls-13 {
        fill: #fefcf2;
      }
    </style>
    <clipPath id="clippath">
      <path class="cls-4" d="M73.6,273.83l-40.75-26.21c2.17-6.67,4.89-19.92.03-36.15l43.53,24.58s12.68,23.88-2.82,37.77Z"/>
    </clipPath>
    <clipPath id="clippath-1">
      <path class="cls-4" d="M288.64,140.87l-55.23,15.06s-8.15-11.32-.45-29.93l52.64-14.5c-3.68,11.96.3,23.5,3.04,29.37Z"/>
    </clipPath>
    <clipPath id="clippath-2">
      <path class="cls-4" d="M258.74,102.61l-40.76,11.52c-9.22-12.6-2.75-29.58-2.75-29.58l43.58-12.78c-2.1,6.19-5.75,20.25-.06,30.84Z"/>
    </clipPath>
    <clipPath id="clippath-3">
      <path class="cls-4" d="M106.93,82.32l-31.68-17.18c1.24-5.07,2.52-15.04-1.98-26.81l33.65,15.82s10.73,17.01,0,28.17Z"/>
    </clipPath>
  </defs>
  <g id="OBJECTS">
    <path class="cls-8" d="M0,246.23c.06-9.91,216.34-19.72,235.14-15.87s99.23,36.56,106.99,44.86c7.77,8.3-255.97,22.38-266.03,19.05C66.04,290.94-.04,253.84,0,246.23Z"/>
    <g>
      <g>
        <path class="cls-6" d="M292.58,269.3l-217.84,10.78-44.2-28.31c.82-1.08,1.8-2.59,2.32-4.16,2.17-6.67,4.89-19.91.03-36.15-.53-1.77-1.15-3.58-1.39-3.6l183.15-8.68,11.04,3.55,46.98,15.11,23.9,7.69s17.94,23.03-3.99,43.76Z"/>
        <path class="cls-3" d="M73.6,273.83l-3.33-2.15-4.27-2.74-33.14-21.32c2.17-6.67,4.89-19.92.03-36.15,0,0,.01.01.03.02l14.11,7.33,29.39,17.23s12.68,23.88-2.82,37.77Z"/>
        <path class="cls-8" d="M73.6,273.83l-3.33-2.15c8.73-26.5-36.08-59.27-37.35-60.19l14.11,7.33,29.39,17.23s12.68,23.88-2.82,37.77Z"/>
        <g class="cls-16">
          <g>
            <path class="cls-7" d="M82.53,267.09c-1.73-1.18-3.6-2.12-5.43-3.14-1.79-1-3.58-2.01-5.36-3.03-3.63-2.08-7.23-4.2-10.8-6.38-7.08-4.31-14.04-8.81-20.87-13.49-3.87-2.65-7.71-5.35-11.51-8.11-.58-.42-1.13.55-.55.98,6.71,4.94,13.55,9.68,20.52,14.24,6.94,4.53,13.99,8.87,21.16,13.03,2.01,1.17,4.04,2.31,6.07,3.45,2.07,1.15,4.11,2.38,6.3,3.28.56.23.99-.47.47-.83Z"/>
            <path class="cls-7" d="M88.32,262.76c-7.54-4.26-15.11-8.47-22.67-12.7-7.52-4.21-15.05-8.4-22.58-12.6-4.27-2.39-8.54-4.8-12.86-7.1-.49-.26-.91.47-.43.76,7.45,4.41,15.05,8.59,22.58,12.86,7.5,4.25,15,8.49,22.51,12.73,3.53,1.99,7.06,3.98,10.59,5.96.04.06.09.11.16.16.67.39,1.35.77,2.05,1.09.75.34,1.4-.72.65-1.14Z"/>
            <path class="cls-7" d="M84.87,254.93c-1.48-1.26-3.43-2.04-5.15-2.93-1.82-.95-3.65-1.91-5.46-2.87-3.6-1.91-7.18-3.85-10.74-5.82-7.13-3.94-14.19-8-21.19-12.18-3.95-2.36-7.88-4.74-11.78-7.17-.51-.32-.97.49-.46.81,6.88,4.36,13.84,8.6,20.87,12.72,7.03,4.12,14.13,8.12,21.29,12,1.99,1.08,3.98,2.14,5.97,3.2,1.03.55,2.06,1.1,3.11,1.63,1.02.51,2,1.08,3.11,1.36.41.1.79-.45.43-.76Z"/>
            <path class="cls-7" d="M85.38,250.91c-3.61-2.25-7.41-4.24-11.12-6.34-3.71-2.1-7.42-4.2-11.13-6.31-7.39-4.18-14.76-8.38-22.16-12.55-4.19-2.36-8.38-4.72-12.57-7.09-.49-.27-.92.48-.43.76,7.39,4.27,14.77,8.54,22.17,12.79,7.36,4.23,14.71,8.47,22.07,12.7,2.07,1.19,4.13,2.38,6.2,3.57,1.46.84,2.92,1.69,4.39,2.52.02.08.08.14.18.19.61.26,1.18.57,1.76.89.74.4,1.36-.69.64-1.13Z"/>
            <path class="cls-7" d="M86.43,246.47c-.77-.74-1.72-1.21-2.64-1.74-.94-.54-1.89-1.08-2.83-1.62-1.85-1.06-3.7-2.13-5.54-3.19l-11.31-6.5c-7.46-4.29-14.93-8.59-22.39-12.89-4.24-2.44-8.48-4.87-12.73-7.29-.53-.3-1,.52-.47.83,7.46,4.39,14.93,8.76,22.4,13.12,7.44,4.34,14.87,8.69,22.31,13.03l6.28,3.67c1.05.61,2.09,1.23,3.14,1.84,1.05.62,2.07,1.33,3.25,1.68.53.16.93-.55.54-.93Z"/>
            <path class="cls-7" d="M81.23,273.05c-1.59-1.25-3.35-2.32-5.04-3.43-1.71-1.13-3.43-2.25-5.15-3.36-3.38-2.18-6.76-4.34-10.15-6.49-6.85-4.35-13.74-8.64-20.68-12.86-3.92-2.38-7.87-4.72-11.82-7.05-.49-.29-.9.48-.42.77,13.71,8.55,27.38,17.19,40.9,26.03,1.92,1.26,3.84,2.52,5.76,3.77,1.91,1.24,3.8,2.61,5.8,3.71.65.36,1.41-.6.79-1.09Z"/>
          </g>
        </g>
        <path class="cls-10" d="M295.35,234.49c-1.17-2.8-2.74-5.37-4.66-7.71-.19-.23-.45-.28-.7-.23-.12-.06-.25-.11-.42-.1-6.42.1-12.82.67-19.24.91-6.41.24-19.34.49-25.76.73-12.83.49-25.66.96-38.48,1.45-25.52.97-51.05,1.94-76.57,2.92-14.4.55-28.8,1.1-43.19,1.66-1.1.04-1.22,1.57-.36,1.88,5.13,9.25,5.66,20.74,1.79,30.55-.55,1.4-1.21,2.76-1.95,4.07-.75,1.33-1.46,2.67-2.19,4-.31.55.43,1.14.89.68,1.01-1.01,1.88-2.04,2.61-3.28.71-1.2,1.33-2.46,1.87-3.74,1.11-2.58,1.93-5.28,2.44-8.04,1.01-5.52.85-11.27-.59-16.7-.7-2.62-1.71-5.15-2.99-7.55,25.15-1.01,50.31-2.04,75.46-3.07,25.52-1.04,51.05-2.11,76.57-3.15,7.2-.29,20.91-.59,28.11-.88,7.2-.29,14.41-.25,21.6-.7.02,0,.03-.01.05-.01,2.92,3.99,4.98,8.55,5.9,13.41.95,5.05.56,10.29-1.01,15.17-.89,2.79-2.15,5.44-3.68,7.94-.51.84.74,1.49,1.3.74,6.48-8.82,7.4-20.96,3.21-30.95Z"/>
        <path class="cls-10" d="M289.93,240.86c-.38-2.16-1-4.25-1.83-6.28-.05-.12-.11-.2-.19-.26,0-.3-.19-.61-.57-.63-5.5-.36-11.1-.24-16.59.18-.66.05-.9.72-.73,1.19-.06.13-.08.27-.02.45,1.41,4.39,2.02,8.99,1.79,13.59-.23,4.66-1.4,9.06-3.23,13.33-.06.14-.07.27-.06.4-.28.53-.03,1.35.76,1.37,2.62.04,5.25-.17,7.86-.3,1.29-.07,2.58-.12,3.86-.15,1.33-.04,2.66.03,3.98-.05.52-.03.79-.41.84-.82,2.09-3.1,3.36-6.86,4.05-10.51.72-3.79.74-7.7.08-11.5ZM287.26,256.69c-.67,1.83-1.58,3.53-2.55,5.21-1.25.12-2.49.32-3.74.42-1.29.1-2.57.16-3.86.17-2.27.03-4.54-.08-6.81-.11,2.75-6.54,3.53-14.06,2.51-21.04-.29-2-.76-3.97-1.36-5.9,2.52-.21,5.06-.39,7.59-.49,2.59-.11,5.16-.09,7.75-.08-.02.13-.02.28.04.43,2.86,6.75,2.97,14.52.45,21.39Z"/>
        <path class="cls-10" d="M240.71,248.2c-.38-.26-.95-.02-1.15.35-.24.44-.03.89.35,1.15,1.72,1.21,2.62,3.42,2.41,5.49-.22,2.15-1.76,3.95-3.77,4.68-2.1.77-4.35.36-5.97-1.21-.21-.21-.41-.44-.6-.68.57-.3,1.12-.63,1.65-1,1.19-.84,2.23-1.94,2.75-3.33.48-1.29.3-2.83-.82-3.74-1.03-.84-2.49-.97-3.69-.46-1.39.59-2.28,1.95-2.63,3.38-.36,1.47-.17,3.01.41,4.4-4.28,1.6-9.44,1.14-12.88-2.04.32-.38.62-.77.92-1.17.94-1.29,1.77-2.66,2.53-4.07.78-1.45,1.54-2.97,1.82-4.61.44-2.64-.73-6.08-3.73-6.56-2.99-.48-5.32,2.2-6.21,4.77-.87,2.49-.71,5.31.2,7.76.55,1.47,1.35,2.84,2.35,4.02-1.51,1.57-3.3,2.88-5.38,3.59-2.35.81-5.03.87-7.24-.37-.81-.45-1.55-1.08-2.16-1.82.39-.33.76-.68,1.1-1.06.89-.99,1.7-2.17,2.03-3.48.35-1.39-.02-3.01-1.45-3.61-1.38-.58-2.92.01-3.77,1.18-.83,1.15-1.05,2.67-.86,4.05.12.86.41,1.67.8,2.44-3.3,2.09-7.65,2.41-11.04.38,1.43-2.03,2.58-4.25,3.33-6.63.78-2.46,1.3-5.26.42-7.77-.38-1.1-1.03-2.12-2.05-2.74-1.16-.71-2.58-.69-3.79-.14-2.5,1.13-3.87,4.02-4.22,6.61-.35,2.56.13,5.16,1.29,7.46.69,1.37,1.65,2.62,2.82,3.63-.03.03-.05.06-.07.09-1.66,2-3.59,3.85-5.77,5.26-2.13,1.38-4.68,2.3-7.23,1.73-1.45-.32-2.74-1.19-3.48-2.41.32-.34.63-.69.93-1.05.81-.96,1.66-2.07,1.65-3.39-.01-1.36-1.35-2.18-2.58-1.63-1.28.58-1.92,2.05-2.05,3.38-.08.81.02,1.59.26,2.31-.07.07-.15.14-.23.21-.95.87-1.96,1.66-3.08,2.3-2.06,1.19-4.55,1.77-6.82.78-2.01-.88-3.48-2.69-4.29-4.7-.06-.15-.1-.3-.16-.45,1.26-1.49,2.37-3.1,3.29-4.81.7-1.3,1.28-2.67,1.76-4.06.49-1.43.96-2.97,1.03-4.49.07-1.44-.48-2.97-1.85-3.64-1.31-.64-2.63-.05-3.38,1.11-.36.55-.58,1.18-.79,1.79-.3.86-.58,1.73-.85,2.6-.52,1.67-.97,3.37-1.2,5.1-.28,2.09-.23,4.19.31,6.18-.57.62-1.17,1.23-1.8,1.79-.92.82-1.9,1.58-2.93,2.25-1.15.73-2.47,1.39-3.87,1.39-2.31,0-3.66-2.16-3.78-4.27-.15-2.6,1.37-5.01,2.65-7.16.45-.74-.71-1.35-1.18-.63-1.68,2.58-3.41,5.46-2.9,8.67.44,2.76,2.56,5.08,5.5,4.89,3.08-.2,5.84-2.51,7.98-4.55.29-.28.56-.58.84-.87.16.39.34.77.55,1.15,1.3,2.36,3.51,4.33,6.23,4.77,3.08.51,5.97-.81,8.33-2.7.47-.38.92-.78,1.35-1.19.77,1.15,1.92,2.06,3.26,2.56,2.96,1.1,6.18.28,8.8-1.29,2.6-1.56,4.92-3.76,6.8-6.13.4.26.82.5,1.25.7,2.36,1.08,5.02,1.27,7.54.72,1.45-.32,2.86-.91,4.12-1.72.84,1.06,1.93,1.94,3.15,2.52,2.75,1.31,5.99,1.04,8.74-.12,1.99-.84,3.69-2.12,5.17-3.65.45.42.92.81,1.43,1.15,2.4,1.65,5.41,2.34,8.29,2.2,1.72-.08,3.43-.46,5.03-1.09.42.61.93,1.17,1.5,1.63,2.22,1.77,5.11,2.06,7.68.91,2.53-1.13,4.24-3.54,4.38-6.31.13-2.63-1.14-5.22-3.29-6.72ZM151.19,252.16c.27-1.49.67-2.96,1.11-4.41.36-1.17.62-2.55,1.31-3.57.72-1.07,2.05-.71,2.58.37.59,1.22.12,2.75-.23,3.97-.96,3.4-2.64,6.59-4.84,9.34-.35-1.87-.26-3.81.08-5.69ZM168.64,256.77c1.15-.25.22,1.64-.03,2-.37.51-.8.99-1.27,1.45-.04-.2-.08-.41-.09-.62-.04-.91.29-2.6,1.38-2.83ZM181.99,245.5c.42-2.02,1.63-4.52,3.83-5.05,2.16-.52,3.32,1.63,3.6,3.43.35,2.26-.29,4.66-1.11,6.76-.71,1.83-1.68,3.55-2.82,5.15-2.87-2.44-4.24-6.63-3.49-10.28ZM199.47,250.23c.86-.63,2.06-.28,2.06.88,0,1.06-.65,2.1-1.29,2.9-.38.48-.8.92-1.26,1.32-.3-.65-.51-1.34-.55-2.06-.06-1.05.14-2.37,1.05-3.04ZM213.88,243.24c.87-1.82,3.12-4,5.22-2.54,2.16,1.5,1.7,4.52.8,6.58-1.05,2.41-2.48,4.78-4.15,6.82-2.43-2.96-3.54-7.32-1.86-10.86ZM231.05,252.56c.41-.96,1.19-1.75,2.28-1.77.94-.01,1.74.64,1.66,1.63-.08,1.1-.94,2.12-1.75,2.8-.63.53-1.35.97-2.09,1.35-.54-1.27-.65-2.72-.11-4.01Z"/>
        <path class="cls-10" d="M87.13,234.95c-1.32-.97-2.95-1.62-4.42-2.36-1.42-.72-2.83-1.44-4.25-2.15-2.91-1.47-5.86-2.86-8.74-4.37-5.68-2.99-11.27-6.16-16.89-9.28-3.21-1.78-6.41-3.58-9.63-5.34-.96-.53-1.82.97-.84,1.48,5.76,3.03,11.55,6.01,17.34,8.99,5.79,2.99,11.47,6.13,17.1,9.4,1.59.92,3.19,1.82,4.78,2.73,1.57.89,3.14,1.97,4.84,2.59.43.16.92-.16,1.08-.55.19-.46-.01-.87-.39-1.15Z"/>
        <g>
          <path class="cls-10" d="M114.25,247.08c-.36-2.17-.84-4.4-1.68-6.45.08-.12.13-.26.12-.4-.01-.5-.68-.98-1.13-.62-.21.16-.72.11-.97.12-.34.01-.67.02-1.01.01-.67-.01-1.34-.02-2.01-.03-1.34,0-2.68,0-4.03.03-.15,0-.26.05-.36.11-.41.1-.75.47-.6.99,2.17,7.52,2.32,15.56.4,23.15-.26,1.03-.56,2.06-.89,3.07-.35,1.07-.88,2.12-1.06,3.24-.06.4.15.67.44.75.11.26.34.47.71.46,1.39-.04,2.78-.1,4.18-.16.7-.03,1.39,0,2.09.01.32,0,.65.04.97.02.39-.02.74-.18,1.11-.28.26-.07.4-.29.42-.52.11,0,.22-.03.32-.08.82-.44,1.06-1.81,1.34-2.63.32-.93.61-1.87.85-2.83.51-1.98.88-3.99,1.1-6.03.43-3.98.32-8-.33-11.95ZM112.07,263.83c-.27,1.06-.58,2.11-.93,3.15-.17.52-.36,1.03-.56,1.54-.18.46-.37.88-.33,1.35-.29-.08-.57-.16-.87-.16-.32,0-.64.05-.96.07-.69.05-1.39.11-2.09.12-1.19.01-2.39.03-3.58.05.3-.63.51-1.32.73-1.97.32-.94.61-1.89.86-2.85.52-1.95.91-3.95,1.16-5.95.51-4.01.55-8.07.03-12.08-.26-2-.66-3.98-1.17-5.93,1.08-.04,2.17-.08,3.25-.14.67-.04,1.34-.08,2.01-.13.31-.02.61-.03.92-.04.17,0,.46-.03.7-.02.49,1.86,1.05,3.69,1.41,5.59.37,1.95.58,3.92.66,5.9.15,3.87-.29,7.76-1.24,11.51Z"/>
          <path class="cls-10" d="M120.61,246.77c-.37-2.19-.94-4.34-1.68-6.43-.37-1.04-2.03-.6-1.65.43,2.59,7.11,3.06,14.9,1.19,22.24-.26,1.02-.58,2.03-.93,3.02-.37,1.04-.88,2-1.27,3.03-.39,1.01,1.29,1.69,1.76.72.43-.88.7-1.86,1.01-2.79.31-.93.58-1.87.82-2.83.49-1.9.84-3.83,1.06-5.77.45-3.86.34-7.79-.3-11.62Z"/>
        </g>
        <path class="cls-10" d="M265.61,241.34c-.19-2.17-.55-4.33-1.07-6.44-.28-1.11-1.98-.66-1.72.45,1.72,7.13,1.43,14.68-.81,21.66-.32.99-.67,1.98-1.08,2.94-.38.91-1.09,1.93-1.14,2.92-.04.75.87.98,1.36.56.67-.57.99-1.69,1.32-2.49.38-.91.74-1.83,1.06-2.76.61-1.78,1.09-3.61,1.45-5.46.72-3.74.96-7.59.63-11.39Z"/>
      </g>
      <polygon class="cls-7" points="266.56 215.88 255.56 229.29 62.99 225.57 225.69 202.73 266.56 215.88"/>
      <g>
        <path class="cls-5" d="M62.98,225.57l189.35-4.57s9.79-18.12.21-36.37l-18.3-11.14-156.87,1.75-16.35,13.54s-11.84,16.73,1.96,36.8Z"/>
        <path class="cls-9" d="M223.17,207.77c-.02-.89.01-1.76-.06-2.65-.14-1.77-.28-3.54-.42-5.31,0-.09-.03-.17-.06-.25.4-.63.18-1.65-.77-1.62-16.71.44-33.42.78-50.13,1.14-16.62.36-33.23.44-49.85.23-9.36-.12-18.72-.36-28.08-.51-.9-.01-1.22.9-.96,1.53-.16,1.88-.18,3.77-.17,5.66,0,.94.03,1.88.05,2.82.01.48,0,.97.01,1.46,0,.21.01.4.05.58-.03.46.25.93.85.96,4.22.22,8.44.13,12.66.14,4.13.01,8.26-.03,12.39-.02,8.39.02,16.79.12,25.18.17,16.69.08,33.38-.04,50.07-.44,9.4-.23,18.8-.43,28.19-.83.12,0,.22-.04.32-.08.28.05.6-.07.7-.39.27-.79.02-1.77,0-2.6ZM172.01,210.45c-16.7.3-33.39.54-50.1.35-4.68-.05-9.35-.25-14.03-.4-4.5-.15-9.01-.43-13.51-.44-.06-.43-.12-.87-.15-1.3-.06-.9-.07-1.81-.06-2.71.03-1.69.2-3.38.4-5.05,16.43.05,32.86-.28,49.29-.31,16.61-.03,33.22.03,49.83-.12,9.07-.08,18.14-.24,27.22-.42.12,1.7.25,3.39.37,5.09.07.9.21,1.77.34,2.66.05.34.06.72.09,1.09-16.57.65-33.12,1.26-49.7,1.56Z"/>
        <path class="cls-9" d="M250.32,184.97c-12.24-.03-24.49.39-36.72.61l-36.72.64c-24.36.43-48.71.91-73.06,1.4-6.87.14-13.74.27-20.61.35-6.86.08-13.76-.21-20.61.17-.94.05-.91,1.45.02,1.47,6.12.14,12.24-.32,18.36-.44,6.12-.12,12.24-.22,18.36-.29l36.72-.42c24.36-.28,48.71-.64,73.07-.98,6.87-.1,13.74-.19,20.61-.29,6.87-.1,13.75-.09,20.61-.32,1.2-.04,1.17-1.88-.03-1.88Z"/>
        <path class="cls-9" d="M249.68,193.15c-.55-2.5-1.38-4.93-2.43-7.26-.48-1.06-2.06-.16-1.58.9,3.53,7.8,4.04,16.85,1.56,25.03-.35,1.16-.77,2.3-1.26,3.42-.49,1.11-1.19,2.18-1.56,3.33-.28.85.98,1.63,1.57.9.71-.89,1.14-2.02,1.57-3.07.43-1.03.81-2.07,1.15-3.13.7-2.14,1.19-4.34,1.49-6.57.61-4.51.47-9.09-.51-13.54Z"/>
        <path class="cls-9" d="M240.74,193.7c-.26-1.17-.57-2.32-.92-3.46-.34-1.12-.63-2.49-1.3-3.46-.43-.62-1.72-.52-1.61.42.15,1.28.75,2.53,1.11,3.76.37,1.27.68,2.55.95,3.84.54,2.58.87,5.2.99,7.84.12,2.63.02,5.28-.28,7.9-.15,1.31-.37,2.61-.63,3.91-.13.65-.28,1.29-.44,1.93-.16.63-.39,1.26-.41,1.91-.03.9,1.22,1.18,1.65.44.52-.89.66-2.07.88-3.07.22-1.01.42-2.02.58-3.03.33-2.12.54-4.25.61-6.39.13-4.19-.24-8.44-1.17-12.53Z"/>
        <path class="cls-9" d="M72.43,221.89c-1.17-1.91-2.39-3.72-3.32-5.77-.9-1.99-1.59-4.07-2.07-6.2-.99-4.31-1.09-8.82-.25-13.16.47-2.47,1.26-4.86,2.31-7.14.46-1-1.04-1.86-1.49-.85-3.82,8.46-3.91,18.64-.47,27.24.97,2.43,2.19,4.95,3.88,6.97.66.78,1.95-.23,1.42-1.08Z"/>
        <path class="cls-9" d="M78.94,220.35c-2.09-4.84-3.55-9.86-3.75-15.15-.2-5.2.61-10.44,1.99-15.45.33-1.18-1.52-1.67-1.85-.48-2.19,8.07-1.79,16.71-.11,24.85.49,2.37,1.08,4.7,1.94,6.97.49,1.31,2.35.57,1.78-.73Z"/>
      </g>
      <g>
        <path class="cls-2" d="M72.34,180.29c-3.81-14.78-.62-27.25-.62-27.25h187.4s6.16,14.58,0,27.25H72.34Z"/>
        <g>
          <path class="cls-7" d="M255.32,162.4c-.09-.78-.21-1.57-.31-2.35-.09-.72-.13-1.64-.53-2.25-.08-.12-.18-.2-.29-.26-.14-.16-.35-.27-.62-.28-5.76-.31-11.55-.18-17.32-.18-5.77,0-11.55-.01-17.32-.01-11.43,0-22.86,0-34.29.03-11.55.03-23.1.07-34.64.23-11.43.16-22.86.36-34.29.38-4.85,0-9.7.04-14.55.05-.32-.36-.97-.37-1.35,0-7.67,0-15.34-.06-22.99-.4-.16,0-.29.04-.4.11-.3-.06-.64.08-.78.5-.22.66-.22,1.41-.29,2.1-.07.69-.16,1.38-.24,2.07-.17,1.47-.25,2.95-.22,4.43.06,2.89.53,5.78,1.46,8.5.09.26.25.42.44.51.1.4.4.74.91.72,5.71-.18,11.42-.37,17.13-.39,5.71-.03,11.42-.02,17.13-.03,11.42-.01,22.84.14,34.26.24,22.73.19,45.45.31,68.18.3,6.41,0,12.82,0,19.23-.01,3.15,0,6.29-.02,9.44-.02,1.76,0,3.52.01,5.27,0,1.36.31,2.79.39,4.04-.02.33.53,1.19.63,1.51-.21,1.11-2.92,1.57-6.04,1.65-9.17.04-1.53-.05-3.07-.23-4.59ZM234.12,159.32c2.39,0,4.78.02,7.18.03-.02,0-.04.02-.06.03-3.7,1.71-7.69,4.77-11.96,3.59-.92-.25-1.8-.7-2.5-1.38-.67-.64-1.02-1.41-1.36-2.26,2.9,0,5.81,0,8.71,0ZM99.46,158.67c-.24,1.75-1.61,3.11-3.19,3.64-2.16.73-4.54.14-6.57-.74-1.96-.85-3.89-1.96-5.89-2.75,5.22-.12,10.44-.15,15.66-.15ZM96.92,174.67c-3.44-.02-6.87-.08-10.3-.16,2.05-.65,4.03-1.53,5.9-2.67,1.82-1.09,3.9-2.5,6.05-1.56.86.38,1.63,1.05,2.13,1.87.5.81.6,1.62.73,2.52-1.5,0-3.01,0-4.51,0ZM235.73,174.16c-3.64,0-7.29,0-10.93-.01,2.05-3.01,5.65-5.06,9.24-4.56,3.41.48,6.17,2.73,9.1,4.53-2.47.02-4.94.05-7.4.04ZM254.38,166.86c-.12,2.45-.69,4.86-1.51,7.16-.06,0-.11-.02-.18-.02-.6.07-1.17.16-1.75.23-.88-.04-1.75-.08-2.63-.1-.79-.15-1.58-.39-2.33-.67-2.18-.79-4.17-2.04-6.25-3.09-1.93-.97-3.95-1.86-6.1-2.12-1.96-.23-3.89.07-5.7.86-2.09.92-3.83,2.53-4.91,4.6-.08.15-.1.29-.1.42-1.44,0-2.89,0-4.33,0-11.42,0-22.84,0-34.26.04-22.73.08-45.45.41-68.18.49-4.35.02-8.69,0-13.04-.01.22-1.61-.65-3.36-1.68-4.48-1.14-1.25-2.8-2.08-4.48-2.02-2.03.07-3.78,1.23-5.47,2.26-1.81,1.11-3.74,1.99-5.75,2.61-2.3.71-4.68,1.12-7.08,1.19-.08,0-.15.03-.22.05-.19,0-.38,0-.57-.02-.84-2.49-1.45-5.06-1.66-7.7-.11-1.35-.13-2.69-.04-4.04.05-.74.12-1.46.29-2.18.1-.44.26-.88.39-1.32.03,0,.06,0,.08,0,.12.23.36.39.67.32,5.01-1.13,9.4,3.1,14.01,4.33,2.14.57,4.53.61,6.51-.52,1.67-.95,2.87-2.55,3.17-4.49,3.39,0,6.78.02,10.16.01,11.43,0,22.86.17,34.29.32,22.98.32,45.96.31,68.93.32,3.09,0,6.19,0,9.28,0-.01.06-.03.12-.03.19.12,1.87,1.54,3.46,3.04,4.35,1.78,1.06,3.83,1.2,5.81.83,4.51-.84,8.14-4.12,12.6-5.17.35-.08.7-.13,1.05-.19,1.81-.02,3.62-.06,5.43-.14.43.05.86.1,1.29.18.1.02.19.01.27,0,.1.27.2.55.28.81.22.69.37,1.39.47,2.11.22,1.51.27,3.04.19,4.57Z"/>
          <path class="cls-7" d="M83.83,163.58c-.75-.48-1.73-.53-2.5-.09-.41.23-.79.62-.98,1.07-.14.32-.21.65-.2.97-.1.82.2,1.7.81,2.24.38.34.8.56,1.3.63.49.07.95-.03,1.39-.26.83-.43,1.34-1.34,1.41-2.28.07-.93-.49-1.81-1.24-2.28Z"/>
          <path class="cls-7" d="M250.13,166.15c-.15-.52-.47-.95-.92-1.22-.23-.14-.48-.23-.73-.26-.02,0-.04-.02-.06-.03-.48-.09-.92-.02-1.36.19-.38.18-.72.53-.91.92-.42.85-.26,1.94.4,2.61.68.69,1.74.8,2.57.33.84-.47,1.29-1.58,1.01-2.53Z"/>
          <path class="cls-7" d="M213.81,163.98c-3.34-.37-6.68-.29-10.03-.29h-10.03c-6.69,0-13.38.1-20.07.19-13.38.18-26.76.2-40.14.19-7.53,0-15.05-.1-22.58-.25-1.18-.02-1.18,1.93,0,1.9,13.38-.27,26.76-.31,40.14-.25,13.38.06,26.76.34,40.14.38,3.72.01,7.43,0,11.15,0s7.63.13,11.43-.29c.97-.11.97-1.46,0-1.57Z"/>
          <path class="cls-7" d="M215.66,169.46c-6.86-.41-13.77-.17-20.64-.17-6.79,0-13.57.06-20.36.11-13.66.1-27.33.2-41,.15-7.72-.03-15.43-.24-23.15-.27-1.43,0-1.43,2.32,0,2.31,6.88-.03,13.76-.24,20.64-.26,6.79-.02,13.57,0,20.36.03,13.67.04,27.33.21,41,.22,3.81,0,7.62,0,11.43,0,3.91,0,7.81.06,11.71-.18,1.21-.07,1.21-1.88,0-1.95Z"/>
        </g>
      </g>
      <g>
        <g>
          <path class="cls-7" d="M290.76,144.88l-56.19,16.12-191.7-9.35c-12.46-17.77,0-36.22,0-36.22l54.12-16.54,190.28,8.27c-.69,1.45-1.24,2.9-1.68,4.34-3.68,11.96.3,23.5,3.04,29.37,1.17,2.53,2.12,4.01,2.12,4.01Z"/>
          <path class="cls-3" d="M288.64,140.87l-46.01,12.55-9.22,2.51s-8.15-11.32-.45-29.92l38.53-10.61,14.1-3.89c-3.68,11.96.3,23.5,3.04,29.37Z"/>
          <path class="cls-8" d="M285.6,111.5c-12.19,7.73-38.9,18.44-41.38,36.62-.25,1.8-1.24,3.48-1.59,5.29l-9.22,2.51s-8.15-11.32-.45-29.92l52.64-14.5Z"/>
          <g class="cls-15">
            <g>
              <path class="cls-7" d="M298.22,111.73c-.28.01-.56.05-.85.08-.21.02-.35.12-.44.24-8.81,2.4-17.67,4.64-26.48,7.04-9.19,2.49-18.37,5.01-27.54,7.59-5.17,1.46-10.34,2.93-15.5,4.44-.86.25-.5,1.59.35,1.34,9.12-2.75,18.25-5.45,27.41-8.03,9.17-2.58,18.35-5.07,27.57-7.46,5.2-1.35,10.4-2.72,15.64-3.93.72-.17.59-1.33-.17-1.3Z"/>
              <path class="cls-7" d="M299.8,114.29l-1.33.27c-.09.02-.16.07-.2.13-2,.56-3.97,1.26-5.95,1.85-2.45.73-4.9,1.46-7.36,2.18-4.96,1.45-9.91,2.91-14.86,4.38-9.9,2.93-19.82,5.79-29.73,8.68-5.61,1.64-11.22,3.3-16.82,4.99-.87.26-.51,1.64.36,1.36,9.85-3.13,19.7-6.24,29.55-9.34,9.85-3.09,19.77-5.97,29.69-8.84,2.81-.81,5.62-1.61,8.44-2.4,1.36-.38,2.73-.76,4.1-1.13,1.45-.39,2.94-.7,4.36-1.19.6-.2.37-1.08-.25-.95Z"/>
              <path class="cls-7" d="M296.61,119.06c-.17.12-.26.29-.29.47-9.72,3.08-19.44,6.14-29.18,9.12-10.01,3.07-20.05,6.05-30.08,9.06-5.68,1.7-11.35,3.4-17.02,5.13-.86.26-.51,1.62.35,1.35,10.07-3.06,20.11-6.21,30.16-9.33,10-3.11,20.03-6.15,30.06-9.13,5.68-1.69,11.37-3.34,17.05-5,.3-.09.62-.41.58-.75-.09-.78-.87-1.44-1.64-.92Z"/>
              <path class="cls-7" d="M296.71,126.16c-2.51.48-4.98,1.32-7.45,2-2.48.69-4.96,1.37-7.44,2.05-4.92,1.34-9.83,2.68-14.75,4.01-9.88,2.67-19.76,5.35-29.64,8.02-5.58,1.51-11.17,3.02-16.75,4.53-1,.27-.59,1.83.41,1.55,9.87-2.72,19.74-5.44,29.61-8.16,9.87-2.72,19.74-5.45,29.61-8.14,2.79-.76,5.58-1.52,8.37-2.27,2.78-.75,5.66-1.34,8.36-2.31.8-.29.51-1.45-.34-1.29Z"/>
              <path class="cls-7" d="M300.36,127.69c-.47-.16-.89-.18-1.38-.2-.4-.02-.53.36-.43.65-9.61,3.02-19.24,6.02-28.87,8.99-10.11,3.12-20.22,6.24-30.33,9.37-5.71,1.77-11.45,3.5-17.12,5.4-.81.27-.5,1.53.34,1.3,10.17-2.91,20.24-6.21,30.33-9.36,10.1-3.15,20.2-6.34,30.31-9.47,5.71-1.77,11.43-3.54,17.14-5.29.71-.22.67-1.16,0-1.39Z"/>
              <path class="cls-7" d="M293.32,135.88c-8.86,2.49-17.72,4.96-26.59,7.43-8.91,2.48-17.82,4.95-26.72,7.46-5,1.41-10.02,2.77-15,4.26-.86.26-.52,1.57.35,1.35,8.9-2.31,17.75-4.88,26.61-7.36,8.91-2.49,17.81-4.99,26.72-7.48,5.01-1.4,10.02-2.79,15.02-4.19.94-.26.56-1.73-.39-1.47Z"/>
            </g>
          </g>
        </g>
        <path class="cls-1" d="M225.22,123.55c-22.76-1.05-45.53-1.9-68.3-2.79-22.78-.89-45.55-1.99-68.31-3.22-6.39-.35-12.78-.71-19.18-1.08-6.37-.37-12.78-.95-19.17-.92-1.03,0-1.24,1.68-.17,1.78,2.38.23,4.77.37,7.16.48-.21.41-.38.84-.54,1.19-.5,1.09-.95,2.2-1.35,3.32-.79,2.22-1.38,4.5-1.77,6.82-.77,4.62-.8,9.34-.03,13.96.21,1.29.49,2.58.84,3.84.17.63.36,1.26.56,1.88.21.65.4,1.4.76,1.97.64,1,2.13.26,1.83-.75,0,0,0,0,.01,0-.09-.52-.35-1.03-.53-1.53-.19-.55-.37-1.1-.54-1.65-.32-1.07-.6-2.15-.83-3.25-.46-2.18-.71-4.4-.79-6.63-.14-4.48.5-8.95,1.88-13.22.38-1.17.81-2.33,1.31-3.45.26-.6.53-1.2.82-1.79.1-.21.2-.42.29-.63,2.68.1,5.36.16,8.03.26.81.03,1.62.06,2.43.09-4.86,7.06-6.68,15.88-5.25,24.32.21,1.27.49,2.54.81,3.79.16.64.36,1.28.59,1.9.1.27.21.54.32.81.17.41.42.56.67.9.45.62,1.47.3,1.29-.52-.05-.24,0-.5-.06-.75-.06-.27-.22-.54-.33-.81-.21-.5-.41-1.01-.61-1.51-.41-1.05-.78-2.11-1.05-3.21-.51-2.13-.77-4.31-.8-6.5-.05-4.24.86-8.46,2.61-12.32.97-2.14,2.18-4.16,3.59-6.04,4.35.16,8.7.31,13.05.48,11.38.45,22.77.91,34.15,1.44,22.78,1.06,45.55,2.3,68.32,3.56,5.53.31,11.06.6,16.59.89-3.4,8.05-3.57,17.39-1.01,25.7.37,1.21.81,2.4,1.3,3.56.46,1.11.93,2.61,1.84,3.42.63.57,1.51.01,1.38-.79-.17-1.01-.89-1.99-1.31-2.92-.44-.97-.84-1.96-1.18-2.97-.71-2.06-1.24-4.18-1.57-6.34-.67-4.27-.56-8.67.27-12.91.45-2.27,1.12-4.5,1.94-6.67,4.25.22,8.5.43,12.74.64-3.61,7.87-3.86,17.25-1.24,25.45.79,2.48,1.81,4.9,3.11,7.16.68,1.19,2.57.11,1.85-1.05-4.69-7.46-5.98-16.59-3.97-25.14.51-2.17,1.26-4.29,2.16-6.33,1.82.09,3.64.18,5.45.27,1.46.07,1.38-2.13-.08-2.2Z"/>
        <g>
          <path class="cls-1" d="M134.45,139.33c-2.37.7-4.97.83-7.43,1.06-2.47.24-4.95.42-7.44.54-2.48.12-4.97.19-7.46.2-2.2,0-4.47.09-6.65-.26-1.07-.17-2.12-.46-3.07-.99-.46-.25-.97-.57-1.31-.99.32-.46.61-.95.86-1.46.22-.44,0-.94-.47-1.08-1.04-.31-2.08.45-2.33,1.46-.09.38-.06.74.04,1.09-1.62,1.69-4.04,2.68-6.35,2.21-1.9-.38-3.56-1.62-4.33-3.27.98-.5,1.92-1.05,2.82-1.68.94-.65,1.93-1.35,2.69-2.21.67-.76,1.12-1.72.8-2.73-.27-.82-1.03-1.44-1.86-1.63-1.89-.44-3.82.57-5,2.01-1.23,1.5-1.81,3.48-1.52,5.41.02.11.05.22.07.33-.95.38-1.92.69-2.92.93-1.94.47-4.27.74-5.95-.59-1.2-.95-1.75-3.07-.19-3.99,1.02-.6.12-2.16-.92-1.59-1.9,1.03-2.42,3.52-1.47,5.38,1.06,2.08,3.54,2.95,5.75,2.84,2.09-.11,4.18-.83,6.12-1.7.64,1.38,1.76,2.55,3.06,3.31,2.1,1.23,4.68,1.42,6.93.48,1.19-.5,2.21-1.25,3.07-2.16.2.21.41.4.63.56,1.92,1.46,4.36,1.86,6.72,1.98,5.77.29,11.63-.06,17.37-.56,1.62-.14,3.24-.31,4.86-.5,1.69-.2,3.4-.51,5.11-.52,1.39,0,1.07-2.26-.25-1.87ZM88.24,134.51c.37-1.39,1.32-2.68,2.66-3.28,1.07-.48,3.7-.33,2.7,1.47-.45.8-1.34,1.38-2.07,1.91-.77.55-1.56,1.05-2.39,1.51-.33.18-.66.34-.99.51-.12-.67-.1-1.38.1-2.11Z"/>
          <path class="cls-1" d="M193.41,143.21c-4.36-1.51-8.95-2.14-13.55-2.25-2.29-.05-4.59,0-6.87.19-2.25.18-4.7.65-6.88-.2-.03-.01-.05-.03-.08-.04,1.2-.79,2.13-1.89,2.21-3.47.1-2-1.56-3.48-3.52-3-1.91.47-3.08,2.3-2.72,4.22.14.75.49,1.42.95,2-1.96.64-3.96,1.21-5.97,1.63-4.32.9-9.44.65-12.52-2.94-.81-.94-2.14.43-1.35,1.37,3.17,3.8,8.47,4.43,13.06,3.58,2.71-.5,5.38-1.41,7.94-2.41.04-.02.08-.04.12-.05.74.5,1.57.85,2.42,1.02,1.31.27,2.63.2,3.96.15,1.35-.04,2.7-.09,4.05-.13,6.17-.17,12.39.25,18.25,2.32,1.25.44,1.76-1.57.51-2ZM163.6,137.11c.47-1.15,2.51-2.06,3.15-.56.35.81-.03,1.84-.6,2.46-.42.45-.95.77-1.5,1.03-.87-.76-1.49-1.83-1.04-2.93Z"/>
        </g>
      </g>
      <g>
        <g>
          <path class="cls-12" d="M261.69,106.82l-41.74,11.66-137.46-10.43s-19.01-16.89.87-37.51l67.52-10.53,77.12,6.08,31.97,2.52s-.51,1.18-1.17,3.16c-.1.29-.2.59-.3.9-2.11,6.57-5.2,19.84.23,29.95.78,1.48,1.76,2.9,2.95,4.21Z"/>
          <path class="cls-3" d="M258.74,102.61l-40.76,11.52c-9.22-12.6-2.75-29.58-2.75-29.58l43.58-12.78c-2.1,6.19-5.75,20.25-.06,30.84Z"/>
          <path class="cls-8" d="M258.8,71.77c-39.14,14.01-40.82,42.36-40.82,42.36-9.22-12.6-2.75-29.58-2.75-29.58l43.58-12.78Z"/>
        </g>
        <path class="cls-13" d="M92.04,77.56c-.12.17-.2.36-.31.53-.11.15-.26.28-.39.4-.33.3-.68.55-1.06.78-.69.43-1.44.79-2.22,1.03-1.82.57-3.76.62-5.6.11-.16-.05-.31-.03-.44,0-.32-.11-.71-.04-1.01.37-3.61,4.88-3.81,11.66-.56,16.78.09.15.21.24.34.3.14.27.39.47.75.46,1.83-.06,3.77.48,5.22,1.59,1.38,1.06,2.26,2.48,2.77,4.15.41,1.36,2.44.83,2.14-.56-.48-2.17-1.91-4.13-3.7-5.41-1.8-1.29-3.99-1.79-6.16-1.57-2.81-4.42-2.74-10.1.36-14.36,3.31.74,6.87-.06,9.6-2.06.36-.26.7-.55,1.06-.81.39-.28.92-.47,1.06-1.01.32-1.23-1.16-1.64-1.83-.72Z"/>
        <path class="cls-13" d="M204.64,94.77c.02-.06.05-.13.06-.2.05-.41-.2-.87-.64-.95-.58-.11-1.19-.11-1.77-.17-.6-.06-1.2-.16-1.79-.29-1.14-.25-2.25-.61-3.26-1.19-1.73-.98-3.14-2.54-3.59-4.51-.25-1.1-1.94-.65-1.7.44.51,2.35,2.15,4.29,4.19,5.5,1.11.67,2.37,1.13,3.63,1.42.63.15,1.27.25,1.92.34.39.05.81.11,1.22.15.65,1.74.94,3.56.86,5.41-.04.92-.18,1.83-.42,2.73-.11.43-.24.85-.4,1.26-.12.33-.28.64-.37.96-2.03-.24-4.06.12-5.88,1.06-.93.48-1.81,1.12-2.54,1.87-.74.76-1.53,1.74-1.85,2.77-.15.47.15,1.01.6,1.18.48.19.96,0,1.25-.43.48-.73.83-1.45,1.44-2.09.61-.64,1.29-1.18,2.06-1.61,1.54-.86,3.29-1.21,5.04-1,.32.04.55-.13.7-.36.24,0,.48-.07.68-.23.42-.36.58-.94.77-1.44.19-.5.35-1.01.48-1.53.25-1.03.4-2.09.43-3.15.07-2.05-.35-4.06-1.11-5.96Z"/>
        <path class="cls-13" d="M192.95,86.66c-6.47-1.07-13.03-1.47-19.56-2.07-6.48-.59-12.96-1.14-19.45-1.65-13.02-1.02-26.04-2.1-39.04-3.39-7.3-.73-14.6-1.52-21.89-2.33-1.18-.13-1.36,1.8-.18,1.89,13.03.98,26.04,2.08,39.04,3.39,13,1.31,25.98,2.74,38.98,3.98,7.29.69,14.61,1.64,21.94,1.8,1.01.02,1.15-1.45.15-1.61Z"/>
        <path class="cls-13" d="M184.61,110.04c-6.09-.9-12.27-1.15-18.41-1.58-6.1-.43-12.2-.82-18.3-1.16-12.25-.69-24.51-1.44-36.74-2.41-6.87-.55-13.74-1.15-20.61-1.78-1.11-.1-1.25,1.83-.14,1.89,12.26.65,24.5,1.43,36.74,2.41,12.23.99,24.46,2.09,36.7,3,6.87.51,13.76,1.27,20.65,1.25.95,0,1.06-1.48.12-1.62Z"/>
        <path class="cls-13" d="M87.65,76.62c-.03-.07-.08-.12-.13-.18-.05-.06-.09-.12-.15-.18-.21-.19-.48-.36-.77-.41-.23-.04-.39-.04-.62,0-.04,0-.07.01-.11.03-.1.03-.2.07-.29.13-.2.13-.34.27-.48.46-.03.04-.05.08-.07.12-.08.16-.13.3-.13.48,0,0,0,.02,0,.03,0,.02-.02.03-.03.05,0,0-.04.08-.05.11-.02.06-.02.16-.03.23,0,.02,0,.03,0,.05,0,.21.05.34.13.53.06.15.16.27.27.39.1.12.24.22.39.29.23.1.4.15.66.16.11,0,.23-.02.34-.04.04,0,.09-.02.13-.03.25-.09.39-.18.6-.34.12-.1.21-.23.3-.36.02-.03.04-.07.06-.11.05-.1.1-.21.12-.32.05-.19.05-.37.03-.56-.02-.19-.07-.35-.16-.52Z"/>
        <g>
          <path class="cls-13" d="M85.55,103.18c0-.08.02-.15.03-.23,0,.05-.01.09-.02.14,0,.03,0,.06-.01.09Z"/>
          <path class="cls-13" d="M85.55,102.51s-.02-.07-.03-.11c-.03-.09-.08-.22-.14-.31-.14-.21-.28-.36-.5-.49-.1-.06-.22-.1-.33-.14-.04-.02-.09-.03-.14-.04-.11-.02-.23-.04-.35-.04-.12,0-.24.02-.36.04-.04,0-.09.02-.13.03-.12.04-.23.08-.34.14-.02.01-.04.02-.06.03-.07.05-.17.11-.21.16-.05.06-.1.13-.15.19-.03.07-.06.14-.09.21-.05.17-.03.41,0,.57.03.11.08.22.13.32.01.02.02.04.04.05.04.06.09.12.14.17,0,.01,0,.02,0,.03.03.09.07.19.12.28.02.04.1.13.08.11.03.04.05.08.09.11,0,.01.02.02.03.03.08.07.17.13.25.19.02.02.05.03.07.04.09.04.19.09.29.11.01,0,.02,0,.04,0,.09.02.18.03.27.03.01,0,.02,0,.04,0,.07,0,.18-.02.25-.03,0,0,.01,0,.02,0,.01,0,.02,0,.04,0,.09-.03.18-.07.26-.1.02-.01.04-.02.07-.04.08-.05.15-.11.22-.17.01,0,.02-.02.03-.03,0-.01.02-.02.03-.03.06-.07.12-.15.17-.22.02-.02.03-.05.04-.07.03-.08.09-.2.11-.29.01-.06.02-.11.02-.17.01-.08.03-.17.03-.25,0-.11-.02-.23-.04-.34Z"/>
        </g>
        <path class="cls-13" d="M200.93,88.56s-.01-.08-.03-.11c-.03-.1-.07-.2-.13-.29-.19-.31-.48-.52-.82-.63-.04-.01-.07-.02-.11-.03-.1-.02-.21-.03-.31-.03-.14,0-.28.02-.42.07-.2.07-.35.15-.51.3-.09.09-.14.19-.19.3-.04.02-.08.03-.12.07-.07.04-.12.09-.15.15-.07.08-.12.18-.15.29,0,.01,0,.02-.01.03-.02.06-.03.17-.03.23,0,.09.02.18.03.26.01.09.04.16.07.24.08.19.19.35.33.49.08.08.18.14.27.21.04.03.09.06.13.08.23.1.41.16.65.17.39.03.75-.14,1.03-.39.11-.1.21-.23.29-.36.05-.09.09-.19.12-.29.02-.04.03-.09.04-.14.04-.23.04-.4,0-.62Z"/>
        <path class="cls-13" d="M201.69,111.24c-.02-.06-.04-.11-.07-.17-.02-.06-.05-.12-.08-.18-.06-.11-.15-.22-.23-.31-.08-.1-.2-.18-.3-.24-.14-.1-.31-.18-.48-.21-.24-.05-.49-.06-.73.01-.15.05-.29.12-.41.21-.02,0-.04,0-.05,0-.14.04-.2.08-.3.15-.05.04-.08.05-.11.09-.08.09-.15.18-.22.28-.13.21-.18.45-.18.7,0,.17.02.35.08.5.04.11.08.24.15.34.07.11.14.21.23.3.09.09.2.17.3.24.1.07.23.11.34.15.15.06.33.08.5.08.16,0,.34-.02.5-.08.11-.04.23-.08.34-.15.11-.06.21-.14.3-.22.04-.03.07-.06.09-.1.07-.09.16-.19.21-.3.11-.22.18-.46.17-.71,0-.12-.02-.25-.05-.37Z"/>
        <path class="cls-13" d="M188.08,95.96c-.04-.45-.33-.9-.83-.89-.02,0-.03,0-.05.01-.14-.09-.29-.17-.5-.18-12.07-.62-24.14-1.65-36.18-2.66-12.06-1.02-24.11-2.14-36.16-3.38-6.83-.7-13.65-1.42-20.48-2.05-.98-.09-1.27,1.03-.81,1.65,0,.04-.03.07-.03.11-.06,1.02-.12,2.05-.17,3.07-.03.48-.05.95-.07,1.43,0,.28-.06.61,0,.88.08.36.38.69.76.73.16.16.36.28.63.31,12.05,1.12,24.13,1.79,36.19,2.8,12.01,1.01,24.05,1.83,36.06,2.88,6.79.6,13.58,1.08,20.38,1.56.37.03.64-.13.8-.36.14-.14.23-.33.25-.54.05-.9.07-1.79.1-2.69.01-.44.02-.88.05-1.32.03-.45.11-.93.07-1.37ZM150.64,97.99c-12.03-.88-24.05-1.79-36.04-3.02-6.68-.68-13.37-1.37-20.06-1.99.01-.42.03-.84.03-1.26.01-.93.03-1.86.04-2.79,11.78.95,23.58,1.71,35.37,2.6,12.06.91,24.13,2,36.16,3.22,6.73.68,13.47,1.29,20.18,2.11,0,.14,0,.28,0,.42,0,.44-.02.88-.04,1.32-.02.53-.03,1.05-.05,1.58-11.87-.68-23.74-1.32-35.6-2.19Z"/>
        <g class="cls-14">
          <g>
            <path class="cls-7" d="M274.51,70.19c-4.29,1.12-8.54,2.43-12.8,3.65-4.17,1.2-8.34,2.37-12.52,3.56-8.44,2.39-16.88,4.8-25.38,6.96-4.79,1.22-9.57,2.45-14.36,3.7-1.09.28-.63,2,.44,1.69,8.43-2.45,16.84-4.94,25.3-7.3,8.45-2.35,16.93-4.59,25.41-6.85,4.77-1.27,9.59-2.42,14.33-3.8,1.02-.3.61-1.87-.42-1.6Z"/>
            <path class="cls-7" d="M269.18,81.27c-4.29,1.12-8.54,2.43-12.8,3.65-4.17,1.2-8.34,2.37-12.52,3.56-8.44,2.4-16.88,4.8-25.38,6.96-4.79,1.22-9.57,2.45-14.36,3.7-1.09.28-.64,2,.44,1.69,8.43-2.45,16.84-4.94,25.3-7.3,8.45-2.35,16.93-4.59,25.41-6.85,4.77-1.27,9.59-2.42,14.33-3.8,1.02-.3.61-1.87-.42-1.6Z"/>
            <path class="cls-7" d="M267.87,75.84c-15.45,4.94-30.94,9.72-46.51,14.27-4.35,1.27-8.69,2.57-13.03,3.87-1.08.32-.63,2.03.44,1.7,15.48-4.86,30.91-9.83,46.46-14.47,4.34-1.3,8.69-2.58,13.03-3.86.97-.28.56-1.82-.4-1.51Z"/>
            <path class="cls-7" d="M263.81,86.85c-14.28,4.96-28.81,9.23-43.42,13.11-4.13,1.1-8.27,2.16-12.41,3.23-.91.23-.54,1.66.37,1.41,7.29-2.01,14.53-4.17,21.8-6.27,7.26-2.1,14.52-4.2,21.76-6.37,4.09-1.23,8.19-2.45,12.3-3.64.96-.28.54-1.81-.39-1.48Z"/>
            <path class="cls-7" d="M264.74,91.09c-14.55,4.69-29.15,9.24-43.8,13.65-4.14,1.25-8.31,2.42-12.41,3.8-.97.33-.59,1.83.41,1.55,3.67-1.04,7.3-2.27,10.94-3.44,3.64-1.17,7.28-2.33,10.93-3.5,7.28-2.33,14.6-4.53,21.92-6.76,4.14-1.26,8.27-2.53,12.41-3.77.98-.29.57-1.85-.4-1.54Z"/>
            <path class="cls-7" d="M268.96,94.57c-3.98,1.15-7.9,2.5-11.85,3.76-3.85,1.23-7.71,2.43-11.56,3.65-7.81,2.46-15.61,4.91-23.43,7.33-2.22.69-4.44,1.37-6.66,2.06-2.17.67-4.41,1.26-6.51,2.13-.73.3-.21,1.39.5,1.24,2.01-.43,3.99-1.17,5.95-1.79,1.93-.6,3.85-1.22,5.78-1.83,3.9-1.23,7.8-2.49,11.71-3.71,7.72-2.4,15.44-4.8,23.16-7.19,4.43-1.38,8.92-2.63,13.32-4.11.96-.33.59-1.83-.4-1.54Z"/>
          </g>
        </g>
        <path class="cls-13" d="M256.55,68.94c-1.56.35-3.1.89-4.63,1.34-1.5.45-2.99.89-4.49,1.34-3.04.9-6.07,1.81-9.11,2.7-6.08,1.79-12.16,3.57-18.25,5.31-3.44.98-6.89,1.93-10.34,2.91-.08.02-.13.06-.19.1-.07-.04-.15-.07-.24-.08-13.99-1.8-28.02-3.29-42.03-4.86-14.02-1.57-28.03-3.14-42.05-4.69-3.88-.43-7.76-.86-11.64-1.29-3.97-.44-7.95-.92-11.93-1.17-.87-.05-1.01,1.2-.15,1.34,3.49.56,7.02.92,10.53,1.33,3.51.41,7.03.79,10.55,1.19,6.99.78,13.97,1.56,20.96,2.34,14.02,1.56,28.04,3.12,42.05,4.68,7.85.87,15.71,1.72,23.58,2.46.13.01.24-.02.34-.06.15.13.35.19.6.12,12.15-3.6,24.32-7.13,36.52-10.56,1.68-.47,3.36-.94,5.04-1.41,1.76-.49,3.57-.91,5.29-1.52.93-.33.6-1.72-.39-1.5Z"/>
      </g>
      <polygon class="cls-7" points="81.54 72.55 109.44 96.92 259.98 68.61 81.54 72.55"/>
      <g>
        <path class="cls-11" d="M269.1,66.81l-160.98,20.08-34.36-18.54c.55-.85,1.19-2.02,1.49-3.21,1.24-5.06,2.52-15.04-1.98-26.81-.49-1.28-1.05-2.59-1.23-2.6l135.37-16.6,8.39,2.02,35.69,8.6,18.15,4.38s14.59,16.08-.53,32.68Z"/>
        <path class="cls-3" d="M106.93,82.32l-2.59-1.41-3.32-1.8-25.77-13.98c1.24-5.07,2.52-15.04-1.98-26.81,0,0,0,0,.02.01l10.87,4.65,22.76,11.15s10.73,17.01,0,28.17Z"/>
        <path class="cls-8" d="M106.93,82.32l-2.59-1.41c5-20.14-30.05-41.96-31.04-42.57l10.87,4.65,22.76,11.15s10.73,17.01,0,28.17Z"/>
        <g class="cls-17">
          <g>
            <path class="cls-7" d="M113.18,76.83c-1.35-.78-2.79-1.38-4.2-2.03-1.38-.64-2.77-1.29-4.14-1.95-2.81-1.34-5.6-2.72-8.37-4.13-5.49-2.8-10.9-5.75-16.23-8.84-3.02-1.75-6.02-3.54-8.99-5.37-.46-.28-.81.47-.36.75,5.25,3.29,10.59,6.43,16.01,9.42,5.4,2.98,10.87,5.81,16.42,8.49,1.56.75,3.12,1.49,4.7,2.22,1.6.74,3.18,1.54,4.86,2.08.43.14.7-.41.3-.64Z"/>
            <path class="cls-7" d="M117.23,73.3c-5.83-2.74-11.68-5.45-17.52-8.17-5.81-2.71-11.63-5.4-17.45-8.1-3.3-1.53-6.6-3.09-9.93-4.56-.38-.17-.65.4-.28.59,5.77,2.86,11.64,5.54,17.46,8.28,5.8,2.73,11.6,5.46,17.4,8.19,2.73,1.28,5.45,2.56,8.18,3.84.03.04.07.08.13.11.52.25,1.04.5,1.58.69.58.21,1-.61.42-.88Z"/>
            <path class="cls-7" d="M114.24,67.68c-1.17-.85-2.66-1.32-3.98-1.89-1.41-.6-2.81-1.21-4.21-1.83-2.77-1.22-5.54-2.46-8.29-3.72-5.51-2.53-10.97-5.15-16.39-7.86-3.06-1.53-6.11-3.08-9.14-4.66-.4-.21-.69.42-.3.63,5.35,2.85,10.74,5.61,16.19,8.27,5.44,2.66,10.93,5.24,16.46,7.72,1.53.69,3.07,1.37,4.61,2.04.8.35,1.59.7,2.39,1.04.78.33,1.55.69,2.39.84.31.05.56-.38.28-.58Z"/>
            <path class="cls-7" d="M114.39,64.67c-2.8-1.47-5.73-2.73-8.6-4.08-2.87-1.35-5.74-2.71-8.61-4.06-5.71-2.69-11.42-5.4-17.13-8.08-3.24-1.52-6.48-3.04-9.71-4.56-.38-.18-.65.4-.28.59,5.71,2.76,11.43,5.51,17.15,8.26,5.69,2.73,11.38,5.46,17.08,8.2,1.6.77,3.2,1.53,4.79,2.3,1.13.54,2.26,1.09,3.39,1.63.02.06.07.1.14.13.47.16.91.36,1.36.56.57.26.97-.59.41-.88Z"/>
            <path class="cls-7" d="M114.93,61.32c-.61-.51-1.34-.8-2.06-1.14-.73-.35-1.46-.7-2.19-1.05-1.43-.68-2.86-1.37-4.29-2.06l-8.75-4.2c-5.77-2.77-11.55-5.55-17.32-8.32-3.28-1.57-6.56-3.14-9.85-4.7-.41-.2-.71.44-.3.64,5.77,2.84,11.56,5.67,17.34,8.49,5.76,2.81,11.51,5.62,17.27,8.43l4.86,2.37c.81.4,1.62.79,2.43,1.19.81.4,1.61.88,2.5,1.07.4.09.66-.46.35-.72Z"/>
            <path class="cls-7" d="M112.55,81.32c-1.25-.84-2.61-1.53-3.93-2.27-1.33-.74-2.67-1.48-4.01-2.21-2.62-1.43-5.25-2.85-7.89-4.25-5.32-2.84-10.67-5.65-16.05-8.39-3.04-1.55-6.1-3.07-9.16-4.58-.38-.19-.64.4-.27.6,10.65,5.58,21.26,11.23,31.78,17.04,1.5.83,2.99,1.66,4.49,2.48,1.49.82,2.96,1.72,4.51,2.43.5.23,1.01-.53.53-.85Z"/>
          </g>
        </g>
        <path class="cls-9" d="M269.23,40.83c-1.03-2.01-2.33-3.83-3.89-5.46-.15-.16-.35-.18-.53-.13-.09-.04-.19-.06-.32-.05-4.76.43-9.47,1.21-14.22,1.74-4.74.54-14.32,1.44-19.06,1.97-9.49,1.07-18.98,2.13-28.46,3.21-18.88,2.14-37.76,4.28-56.64,6.41-10.65,1.21-21.3,2.42-31.95,3.63-.82.09-.82,1.23-.16,1.41,4.32,6.58,5.35,15.07,3.02,22.56-.33,1.07-.74,2.12-1.22,3.13-.48,1.03-.93,2.06-1.4,3.09-.2.43.39.82.7.45.69-.81,1.28-1.62,1.75-2.58.46-.93.85-1.9,1.18-2.88.68-1.98,1.14-4.02,1.36-6.1.44-4.15,0-8.41-1.37-12.35-.66-1.9-1.56-3.73-2.64-5.43,18.6-2.15,37.2-4.3,55.8-6.46,18.87-2.19,37.75-4.39,56.62-6.58,5.32-.62,15.48-1.6,20.8-2.21,5.32-.62,10.68-.98,15.98-1.72.01,0,.02-.01.04-.01,2.38,2.79,4.17,6.07,5.12,9.62.99,3.69.98,7.6.09,11.31-.51,2.12-1.29,4.16-2.29,6.09-.33.65.63,1.06,1,.47,4.32-6.9,4.33-15.96.67-23.14Z"/>
        <path class="cls-9" d="M150.72,59.17c-.4-1.65-.98-3.24-1.71-4.76-.04-.09-.1-.15-.16-.19-.01-.23-.17-.46-.46-.46-4.1.04-8.24.46-12.3,1.1-.49.08-.63.61-.48.96-.03.1-.04.22,0,.35,1.29,3.32,2,6.85,2.08,10.43.09,3.62-.53,7.11-1.65,10.52-.04.11-.04.21-.02.31-.18.43.05,1.05.64,1.02,1.94-.12,3.88-.43,5.81-.69.95-.13,1.9-.24,2.86-.34.98-.11,1.97-.13,2.95-.27.38-.05.56-.37.58-.68,1.38-2.53,2.11-5.51,2.42-8.38.32-2.98.12-6.02-.58-8.92ZM149.62,71.61c-.4,1.46-.98,2.83-1.61,4.19-.92.16-1.83.4-2.75.54-.95.15-1.9.27-2.86.36-1.68.15-3.37.2-5.06.31,1.68-5.23,1.84-11.11.69-16.46-.33-1.53-.78-3.03-1.34-4.49,1.86-.31,3.73-.59,5.6-.82,1.91-.24,3.82-.37,5.74-.51,0,.11,0,.22.05.33,2.5,5.06,3.01,11.09,1.52,16.56Z"/>
        <path class="cls-9" d="M114.81,52.74c-1.04-.65-2.28-1.03-3.41-1.5-1.09-.45-2.18-.91-3.27-1.36-2.24-.93-4.5-1.79-6.72-2.76-4.38-1.91-8.7-3.94-13.04-5.94-2.48-1.14-4.95-2.3-7.44-3.43-.74-.34-1.29.82-.54,1.14,4.44,1.93,8.9,3.81,13.36,5.71,4.46,1.89,8.85,3.91,13.21,6.03,1.23.6,2.46,1.17,3.7,1.76,1.22.58,2.44,1.29,3.74,1.66.33.09.68-.17.77-.46.11-.35-.06-.64-.35-.83Z"/>
        <path class="cls-9" d="M133.82,60.49c-.39-1.59-.87-3.22-1.6-4.69.05-.1.08-.2.07-.3-.04-.37-.56-.69-.87-.4-.14.13-.53.12-.71.14-.25.03-.5.05-.75.07-.5.03-1,.06-1.5.09-1,.07-1.99.16-2.99.25-.11.01-.19.05-.26.1-.3.1-.53.39-.39.77,2.03,5.46,2.58,11.41,1.58,17.15-.14.78-.3,1.56-.49,2.33-.2.81-.54,1.62-.61,2.46-.03.3.15.49.37.54.09.19.28.33.55.3,1.03-.11,2.06-.23,3.09-.35.52-.06,1.03-.08,1.55-.11.24-.01.48,0,.72-.04.29-.04.54-.18.81-.27.19-.07.28-.24.28-.41.08,0,.16-.03.24-.08.58-.38.69-1.4.85-2.03.19-.71.35-1.42.48-2.14.27-1.5.43-3.01.48-4.53.1-2.97-.21-5.95-.91-8.84ZM133.13,73.03c-.14.8-.31,1.6-.52,2.39-.1.39-.21.79-.33,1.17-.11.35-.23.67-.17,1.02-.22-.04-.43-.09-.66-.07-.24.02-.48.07-.71.11-.51.08-1.02.16-1.54.21-.89.08-1.77.15-2.65.24.19-.49.3-1.01.43-1.51.18-.72.34-1.44.48-2.16.28-1.48.46-2.98.53-4.48.16-3-.04-6.02-.65-8.96-.3-1.47-.71-2.91-1.2-4.33.8-.09,1.6-.18,2.4-.29.5-.07.99-.14,1.48-.21.23-.03.45-.06.68-.08.12-.01.34-.05.52-.05.47,1.35.98,2.68,1.35,4.07.38,1.42.65,2.87.82,4.34.33,2.86.22,5.77-.28,8.61Z"/>
        <path class="cls-9" d="M262.59,46.69c-.4-1.65-.98-3.24-1.71-4.76-.04-.09-.1-.15-.16-.19-.01-.23-.17-.46-.46-.46-4.1.04-8.24.46-12.3,1.1-.49.08-.63.61-.48.96-.03.1-.04.22,0,.35,1.29,3.32,2,6.85,2.08,10.43.09,3.62-.53,7.11-1.65,10.52-.04.11-.04.21-.02.31-.18.43.05,1.05.64,1.02,1.94-.12,3.88-.43,5.81-.69.95-.13,1.9-.24,2.86-.34.98-.11,1.97-.13,2.95-.27.38-.06.56-.37.58-.68,1.38-2.53,2.11-5.51,2.42-8.38.32-2.98.12-6.02-.58-8.92ZM261.5,59.12c-.4,1.46-.98,2.83-1.61,4.19-.92.16-1.83.4-2.75.54-.95.15-1.9.27-2.86.36-1.68.15-3.37.2-5.06.31,1.68-5.23,1.84-11.11.69-16.46-.33-1.53-.78-3.03-1.34-4.49,1.86-.31,3.73-.59,5.6-.82,1.91-.24,3.82-.37,5.74-.51,0,.11,0,.22.05.33,2.5,5.06,3.01,11.09,1.52,16.56Z"/>
        <path class="cls-9" d="M245.69,48.01c-.39-1.59-.87-3.22-1.6-4.69.05-.1.08-.2.07-.3-.04-.37-.56-.69-.87-.4-.14.13-.53.12-.71.14-.25.03-.5.05-.75.07-.5.03-1,.06-1.5.09-1,.07-1.99.16-2.99.25-.11.01-.19.05-.26.1-.3.1-.53.39-.39.77,2.03,5.46,2.58,11.41,1.58,17.15-.14.78-.3,1.56-.49,2.33-.2.81-.54,1.62-.61,2.46-.03.3.15.49.37.54.09.19.28.33.55.3,1.03-.11,2.06-.23,3.09-.35.52-.06,1.03-.08,1.55-.11.24-.01.48,0,.72-.04.29-.04.54-.18.81-.27.19-.07.28-.24.28-.41.08,0,.16-.03.24-.08.58-.38.69-1.4.85-2.03.19-.71.35-1.42.48-2.14.27-1.5.43-3.01.48-4.53.1-2.97-.21-5.95-.91-8.84ZM245.01,60.55c-.14.8-.31,1.6-.52,2.39-.1.39-.21.79-.33,1.17-.11.35-.23.67-.17,1.02-.22-.04-.43-.09-.66-.07-.24.02-.48.07-.71.11-.51.08-1.02.16-1.54.21-.89.08-1.77.15-2.65.24.19-.49.3-1.01.43-1.51.18-.71.34-1.44.48-2.16.28-1.48.46-2.98.53-4.48.16-3-.04-6.02-.65-8.96-.3-1.47-.71-2.91-1.2-4.33.8-.09,1.6-.18,2.4-.29.5-.07.99-.14,1.48-.21.23-.03.45-.06.68-.08.12-.01.34-.05.52-.05.47,1.35.98,2.68,1.35,4.07.38,1.42.65,2.87.82,4.34.33,2.86.22,5.77-.28,8.61Z"/>
        <path class="cls-9" d="M224.95,54.43c-3.79.06-6.59,2.7-9.83,4.27-2.49,1.21-5.9,1.6-7.39-1.25-.73-1.4-2.04-2.25-3.56-1.35-.72.42-1.25,1.1-1.82,1.7-.61.65-1.24,1.27-1.9,1.85-1.24,1.08-2.75,2.52-4.4,2.89-.57.13-1.23.11-1.75-.22-.59-.37-.82-1.16-1.32-1.64-.55-.54-1.33-.75-2.08-.49-.86.31-1.3,1.07-1.75,1.8-.36.58-.88,1.08-1.6.68-.69-.38-.46-1.1-.27-1.69.45-.71-.58-1.39-1.19-1-.88.58-1.08,1.69-.81,2.68-.26.43-.57.82-.88,1.13-.75.76-1.73,1.24-2.8,1.31-1.85.12-3.57-1.36-3.23-3.26.01-.07.02-.14.03-.21,0-.01,0-.03,0-.04,0,0,0,0,0,0,0-.07.01-.14.01-.22-.03-.84-1.34-1.09-1.64-.28-.29.78-.33,1.55-.19,2.26-.25.52-.6,1-1.03,1.37-.91.77-2.1,1.06-3.26.83-2.44-.48-3.64-3.19-2.58-5.39.56-1.17-1.25-2-1.84-.84-1.7,3.35.36,7.52,4.11,8.08,1.72.25,3.43-.26,4.65-1.51.26-.27.5-.58.7-.9.88,1.21,2.37,1.99,4.01,1.91,1.54-.07,3.01-.9,3.99-2.06.24-.28.46-.59.65-.92.07.08.14.16.22.22,1.31,1.06,3.29.61,4.18-.74.23-.35.72-1.76,1.27-1.63.21.05.4.54.49.7.21.36.41.69.7.99,1.24,1.26,3.23,1.23,4.74.53,1.67-.77,3.14-2.04,4.49-3.26.66-.6,1.3-1.23,1.91-1.88.34-.37,1.21-1.64,1.73-1.02.43.52.59,1.22,1.02,1.76.5.62,1.14,1.12,1.86,1.47,1.43.7,3.14.82,4.68.49,4.26-.9,7.39-4.97,11.86-5.03,1.36-.02,1.17-2.12-.18-2.1Z"/>
        <path class="cls-9" d="M159.25,41.8c-.5-.56-1.31-.85-1.98-1.18-.71-.35-1.43-.67-2.15-1-1.44-.66-2.89-1.28-4.35-1.91-2.88-1.24-5.78-2.44-8.72-3.54-.9-.34-1.28,1.12-.38,1.45,2.94,1.09,5.88,2.23,8.72,3.55,1.39.64,2.78,1.31,4.15,2,.57.29,1.14.59,1.71.87-1.86.17-3.72.43-5.58.65-2.56.31-5.11.62-7.67.94-5.02.61-10.05,1.18-15.08,1.68-2.72.27-5.46.45-8.18.77-.36-.55-1.18-.76-1.76-1.03-.83-.39-1.67-.78-2.5-1.17-1.67-.78-3.35-1.54-5.03-2.3-2.65-1.21-5.25-2.51-7.86-3.79,1.67-.21,3.35-.44,5.02-.64,2.56-.31,5.11-.6,7.68-.87,5.03-.53,10.06-1.04,15.1-1.53,2.88-.28,5.79-.47,8.64-.97.95-.17.81-1.54-.16-1.49-2.53.11-5.04.48-7.55.79-2.56.31-5.11.62-7.67.94-5.02.61-10.05,1.18-15.08,1.68-2.88.29-5.78.46-8.65.83-.75.1-.85.97-.43,1.38.06.09.15.16.27.22,3.38,1.59,6.79,3.09,10.13,4.74,1.65.82,3.29,1.64,4.95,2.44.83.4,1.66.8,2.49,1.2.43.21.86.49,1.3.63.08.35.36.65.82.6,2.52-.23,5.02-.63,7.53-.93,2.56-.31,5.11-.6,7.67-.87,5.03-.53,10.06-1.04,15.1-1.53,2.88-.28,5.79-.47,8.64-.97.26-.05.43-.18.53-.36.53-.1.68-.86.33-1.26Z"/>
        <path class="cls-9" d="M173.2,40.51c-.59-.5-1.34-.75-2.04-1.08-.71-.33-1.41-.68-2.11-1.05-1.39-.72-2.76-1.5-4.11-2.28-2.72-1.57-5.37-3.25-7.97-5.01-.84-.57-1.64.82-.78,1.38,2.63,1.71,5.3,3.36,8.02,4.92,1.32.76,2.66,1.49,3.99,2.23.69.38,1.38.75,2.06,1.14.68.39,1.4.91,2.17,1.09.72.17,1.41-.8.77-1.34Z"/>
        <path class="cls-9" d="M183.08,39.83c-.51-.69-1.34-.94-2.1-1.3-.78-.37-1.57-.73-2.35-1.11-1.55-.76-3.08-1.56-4.62-2.36-3.06-1.6-6.08-3.28-9.14-4.87-.97-.5-1.82.97-.84,1.48,3.07,1.59,6.18,3.1,9.25,4.68,1.49.77,2.99,1.55,4.46,2.36.76.42,1.5.85,2.25,1.27.73.41,1.51,1.06,2.36,1.07.57,0,1.09-.72.71-1.23Z"/>
        <path class="cls-9" d="M192.1,37.92c-2.56-1.27-5.17-2.47-7.74-3.72-2.57-1.26-5.15-2.51-7.74-3.72-.92-.43-1.73.92-.79,1.4,2.55,1.3,5.12,2.55,7.69,3.8,2.57,1.25,5.12,2.57,7.69,3.8,1.03.49,1.92-1.04.88-1.56Z"/>
        <path class="cls-9" d="M205.86,36.89c-1.74-.9-3.62-1.58-5.41-2.39-1.79-.81-3.59-1.61-5.36-2.48-3.52-1.74-7-3.55-10.5-5.32-.93-.47-1.74.97-.8,1.4,3.57,1.65,7.16,3.26,10.71,4.95,1.73.82,3.43,1.71,5.13,2.59,1.77.92,3.51,1.99,5.32,2.81,1.04.47,1.94-1.03.89-1.57Z"/>
        <path class="cls-9" d="M215.04,35.43c-1.36-.74-2.84-1.31-4.26-1.93-1.43-.62-2.85-1.25-4.26-1.91-2.81-1.31-5.63-2.6-8.48-3.83-1.04-.45-1.67,1.04-.59,1.45,2.89,1.11,5.74,2.27,8.56,3.55,1.38.62,2.72,1.3,4.05,2.02,1.36.74,2.68,1.58,4.08,2.24,1.05.5,1.95-1.02.9-1.59Z"/>
      </g>
    </g>
    <g>
      <path class="cls-9" d="M60.22,68.59c-4.94-2.22-6.53-4.57-7.79-10.09-.04-.18-.12-.29-.21-.37-.29-.55-1.53-.9-1.48.4.25,5.88-1.85,9.24-6.02,11.58-.67.38-.57,1.61.38,1.69,2.03.16,3.96,1.31,5.33,3.23.6.84,1.07,1.83,1.39,2.89.16.53.3,1.09.39,1.65.08.51.09.98.32,1.34.06.33.27.6.61.57.1,0,.2-.02.3-.03.25-.02.55-.3.57-.64.13-2.43.77-4.79,1.74-6.94.75-1.65,2.71-2.96,4.2-3.4,1.25-.37.72-1.68.25-1.89Z"/>
      <path class="cls-9" d="M298.46,187.34c-4.94-2.22-6.53-4.57-7.79-10.09-.04-.18-.12-.29-.21-.37-.29-.55-1.53-.9-1.48.4.25,5.88-1.85,9.24-6.02,11.58-.67.38-.57,1.61.38,1.69,2.03.16,3.96,1.32,5.33,3.23.6.84,1.07,1.83,1.39,2.89.16.53.3,1.09.39,1.65.08.51.09.98.32,1.34.06.33.27.6.61.57.1,0,.2-.02.3-.03.25-.02.55-.3.57-.64.13-2.43.77-4.79,1.74-6.94.75-1.65,2.71-2.96,4.2-3.4,1.25-.37.72-1.68.25-1.89Z"/>
      <path class="cls-9" d="M303.25,79.39c-3.44-1.54-4.55-3.18-5.42-7.02-.03-.12-.08-.2-.14-.26-.2-.38-1.07-.62-1.03.28.18,4.1-1.29,6.43-4.19,8.06-.46.26-.4,1.12.27,1.17,1.41.11,2.75.92,3.71,2.25.42.58.74,1.28.97,2.01.11.37.21.76.27,1.15.06.35.07.68.23.93.04.23.19.42.43.4.07,0,.14-.01.21-.02.17-.01.38-.21.39-.45.09-1.69.54-3.33,1.21-4.83.52-1.15,1.88-2.06,2.92-2.36.87-.26.5-1.17.17-1.31Z"/>
      <path class="cls-9" d="M42.7,179.62c-3.44-1.54-4.55-3.18-5.42-7.02-.03-.12-.08-.2-.14-.26-.2-.38-1.07-.62-1.03.28.18,4.1-1.29,6.43-4.19,8.06-.46.26-.4,1.12.27,1.17,1.41.11,2.75.92,3.71,2.25.42.58.74,1.28.97,2.01.11.37.21.76.27,1.15.06.35.06.68.23.93.04.23.19.42.43.4.07,0,.14-.01.21-.02.17-.01.38-.21.39-.45.09-1.69.54-3.33,1.21-4.83.52-1.15,1.88-2.06,2.92-2.36.87-.26.5-1.17.17-1.31Z"/>
      <path class="cls-9" d="M11.22,123.26c-2.15-.97-2.85-1.99-3.4-4.4-.02-.08-.05-.13-.09-.16-.13-.24-.67-.39-.64.18.11,2.57-.81,4.03-2.62,5.05-.29.16-.25.7.17.74.88.07,1.72.57,2.32,1.41.26.37.47.8.61,1.26.07.23.13.47.17.72.03.22.04.43.14.58.03.14.12.26.27.25.04,0,.09,0,.13-.01.11,0,.24-.13.25-.28.06-1.06.34-2.09.76-3.03.33-.72,1.18-1.29,1.83-1.48.54-.16.31-.73.11-.82Z"/>
      <path class="cls-9" d="M249.99,6.42c-2.89-1.3-3.83-2.68-4.57-5.91-.02-.1-.07-.17-.12-.22-.17-.32-.9-.53-.87.24.15,3.45-1.09,5.41-3.53,6.79-.39.22-.34.94.22.99,1.19.09,2.32.77,3.12,1.89.35.49.63,1.08.82,1.69.1.31.18.64.23.97.05.3.05.57.19.78.04.19.16.35.36.34.06,0,.12-.01.18-.02.14-.01.32-.18.33-.38.07-1.43.45-2.81,1.02-4.07.44-.97,1.59-1.73,2.46-1.99.73-.22.42-.98.15-1.11Z"/>
    </g>
  </g>
</svg>